<?xml version="1.0" encoding="utf-8"?>
<svg viewBox="194.571 158.164 138.914 132.946" xmlns="http://www.w3.org/2000/svg">
  <g>
    <path d="m263.5,160c-35.014,0-63.5,28.486-63.5,63.5s28.486,63.5 63.5,63.5 63.5-28.486 63.5-63.5-28.486-63.5-63.5-63.5zm0,112c-26.743,0-48.5-21.757-48.5-48.5s21.757-48.5 48.5-48.5 48.5,21.757 48.5,48.5-21.757,48.5-48.5,48.5z"/>
    <path d="m263.5,192c-4.142,0-7.5,3.358-7.5,7.5s3.358,7.5 7.5,7.5c9.098,0 16.5,7.402 16.5,16.5 0,4.142 3.358,7.5 7.5,7.5s7.5-3.358 7.5-7.5c0-17.369-14.131-31.5-31.5-31.5z"/>
  </g>
</svg>