<?xml version="1.0" encoding="utf-8"?>
<svg viewBox="0 0 295.239 295.239" style="enable-background:new 0 0 295.239 295.239;" xmlns="http://www.w3.org/2000/svg">
  <g>
    <g>
      <g>
        <circle cx="123.811" cy="19.048" r="4.762"/>
        <circle cx="161.906" cy="28.571" r="4.762"/>
        <circle cx="142.858" cy="14.286" r="4.762"/>
        <circle cx="176.191" cy="14.286" r="4.762"/>
        <circle cx="138.096" cy="33.333" r="4.762"/>
        <path d="M185.714,80.952V66.667h4.762c7.876,0,14.286-6.41,14.286-14.286c0-7.876-6.41-14.286-14.286-14.286h-3.424L196.576,0 H98.662l9.524,38.095h-3.424c-7.876,0-14.286,6.41-14.286,14.286c0,7.876,6.41,14.286,14.286,14.286h4.762v14.286 c-31.51,0-57.143,25.633-57.143,57.143v147.619c0,5.252,4.271,9.524,9.524,9.524h171.429c5.252,0,9.524-4.271,9.524-9.524 v-147.62C242.857,106.586,217.225,80.952,185.714,80.952z M142.857,9.524h33.333h8.186l-7.143,28.571h-39.138h-20.09 l-7.143-28.571H142.857z M104.763,57.143c-2.629,0-4.762-2.133-4.762-4.762c0-2.629,2.133-4.762,4.762-4.762h5.805h74.11h5.8 c2.629,0,4.762,2.133,4.762,4.762c0,2.629-2.133,4.762-4.762,4.762h-4.762h-76.19H104.763z M233.335,285.714h-0.001H61.906 V138.095c0-26.257,21.362-47.619,47.619-47.619h9.524v-23.81h57.143v23.81h9.524c26.257,0,47.619,21.362,47.619,47.619V285.714z"/>
        <rect x="71.43" y="128.571" width="119.048" height="9.524"/>
        <rect x="204.763" y="128.571" width="19.048" height="9.524"/>
      </g>
    </g>
  </g>
</svg>